<?xml version="1.0" encoding="UTF-8"?>
<svg id="_Слой_2" data-name="Слой 2" xmlns="http://www.w3.org/2000/svg" viewBox="0 0 601 601">
  <defs>
    <style>
      .cls-1 {
        fill: #393a3a;
        stroke: #7a7a7a;
        stroke-miterlimit: 10;
      }
    </style>
  </defs>
  <g id="_Слой_1-2" data-name="Слой 1">
    <rect class="cls-1" x=".5" y=".5" width="100" height="100"/>
    <rect class="cls-1" x="100.5" y=".5" width="100" height="100"/>
    <rect class="cls-1" x="200.5" y=".5" width="100" height="100"/>
    <rect class="cls-1" x="300.5" y=".5" width="100" height="100"/>
    <rect class="cls-1" x="400.5" y=".5" width="100" height="100"/>
    <rect class="cls-1" x="500.5" y=".5" width="100" height="100"/>
    <rect class="cls-1" x=".5" y="100.5" width="100" height="100"/>
    <rect class="cls-1" x="100.5" y="100.5" width="100" height="100"/>
    <rect class="cls-1" x="200.5" y="100.5" width="100" height="100"/>
    <rect class="cls-1" x="300.5" y="100.5" width="100" height="100"/>
    <rect class="cls-1" x="400.5" y="100.5" width="100" height="100"/>
    <rect class="cls-1" x="500.5" y="100.5" width="100" height="100"/>
    <rect class="cls-1" x=".5" y="200.5" width="100" height="100"/>
    <rect class="cls-1" x="100.5" y="200.5" width="100" height="100"/>
    <rect class="cls-1" x="200.5" y="200.5" width="100" height="100"/>
    <rect class="cls-1" x="300.5" y="200.5" width="100" height="100"/>
    <rect class="cls-1" x="400.5" y="200.5" width="100" height="100"/>
    <rect class="cls-1" x="500.5" y="200.5" width="100" height="100"/>
    <rect class="cls-1" x=".5" y="300.5" width="100" height="100"/>
    <rect class="cls-1" x="100.5" y="300.5" width="100" height="100"/>
    <rect class="cls-1" x="200.5" y="300.5" width="100" height="100"/>
    <rect class="cls-1" x="300.5" y="300.5" width="100" height="100"/>
    <rect class="cls-1" x="400.5" y="300.5" width="100" height="100"/>
    <rect class="cls-1" x="500.5" y="300.5" width="100" height="100"/>
    <rect class="cls-1" x=".5" y="400.5" width="100" height="100"/>
    <rect class="cls-1" x="100.5" y="400.5" width="100" height="100"/>
    <rect class="cls-1" x="200.5" y="400.5" width="100" height="100"/>
    <rect class="cls-1" x="300.5" y="400.5" width="100" height="100"/>
    <rect class="cls-1" x="400.5" y="400.5" width="100" height="100"/>
    <rect class="cls-1" x="500.5" y="400.5" width="100" height="100"/>
    <rect class="cls-1" x=".5" y="500.5" width="100" height="100"/>
    <rect class="cls-1" x="100.5" y="500.5" width="100" height="100"/>
    <rect class="cls-1" x="200.5" y="500.5" width="100" height="100"/>
    <rect class="cls-1" x="300.5" y="500.5" width="100" height="100"/>
    <rect class="cls-1" x="400.5" y="500.5" width="100" height="100"/>
    <rect class="cls-1" x="500.5" y="500.5" width="100" height="100"/>
  </g>
</svg>